<svg width="16" height="16" viewBox="0 0 16 16" fill="none" xmlns="http://www.w3.org/2000/svg">
<path d="M7.99994 2C6.80647 2 5.66187 2.47411 4.81796 3.31802C3.97405 4.16193 3.49994 5.30653 3.49994 6.5V8.9015L2.53544 11.3145C2.50513 11.3904 2.49387 11.4725 2.50265 11.5538C2.51144 11.635 2.54 11.7128 2.58583 11.7805C2.63167 11.8481 2.69338 11.9035 2.76557 11.9418C2.83776 11.98 2.91823 12 2.99994 12H5.99994C5.99994 13.1085 6.89144 14 7.99994 14C9.10844 14 9.99994 13.1085 9.99994 12H12.9999C13.0816 12 13.1621 11.98 13.2343 11.9418C13.3065 11.9035 13.3682 11.8481 13.414 11.7805C13.4599 11.7128 13.4884 11.635 13.4972 11.5538C13.506 11.4725 13.4948 11.3904 13.4644 11.3145L12.4999 8.9015V6.5C12.4999 5.30653 12.0258 4.16193 11.1819 3.31802C10.338 2.47411 9.19341 2 7.99994 2ZM8.99994 12C8.99994 12.556 8.55594 13 7.99994 13C7.44394 13 6.99994 12.556 6.99994 12H8.99994ZM4.49994 6.5C4.49994 5.57174 4.86869 4.6815 5.52507 4.02513C6.18144 3.36875 7.07168 3 7.99994 3C8.9282 3 9.81844 3.36875 10.4748 4.02513C11.1312 4.6815 11.4999 5.57174 11.4999 6.5V8.9975C11.4999 9.06103 11.5119 9.12398 11.5354 9.183L12.2614 11H3.73844L4.46444 9.183C4.48789 9.12414 4.49993 9.06136 4.49994 8.998V6.5Z" fill="black"/>
</svg>
