<svg width="20" height="20" viewBox="0 0 20 20" fill="none" xmlns="http://www.w3.org/2000/svg">
<path d="M10 7.49981C9.337 7.49981 8.70112 7.7632 8.23228 8.23204C7.76344 8.70088 7.50004 9.33677 7.50004 9.99981C7.50004 10.6628 7.76344 11.2987 8.23228 11.7676C8.70112 12.2364 9.337 12.4998 10 12.4998C10.6631 12.4998 11.299 12.2364 11.7678 11.7676C12.2367 11.2987 12.5 10.6628 12.5 9.99981C12.5 9.33677 12.2367 8.70088 11.7678 8.23204C11.299 7.7632 10.6631 7.49981 10 7.49981ZM8.75004 9.99981C8.75004 9.66829 8.88174 9.35034 9.11616 9.11592C9.35058 8.8815 9.66852 8.74981 10 8.74981C10.3316 8.74981 10.6495 8.8815 10.8839 9.11592C11.1183 9.35034 11.25 9.66829 11.25 9.99981C11.25 10.3313 11.1183 10.6493 10.8839 10.8837C10.6495 11.1181 10.3316 11.2498 10 11.2498C9.66852 11.2498 9.35058 11.1181 9.11616 10.8837C8.88174 10.6493 8.75004 10.3313 8.75004 9.99981ZM13.2725 5.49731C13.042 5.53966 12.8041 5.48882 12.611 5.35594C12.4179 5.22307 12.2854 5.01901 12.2425 4.78856L11.9175 3.01856C11.9016 2.93236 11.8604 2.85284 11.7992 2.79008C11.738 2.72732 11.6596 2.68416 11.5738 2.66606C10.5357 2.44595 9.46309 2.44595 8.42504 2.66606C8.33927 2.68416 8.26081 2.72732 8.19961 2.79008C8.13841 2.85284 8.09723 2.93236 8.08129 3.01856L7.75754 4.78856C7.7339 4.91462 7.68322 5.03406 7.60898 5.13866C7.53475 5.24325 7.43872 5.33051 7.32752 5.39443C7.21632 5.45834 7.09258 5.4974 6.96484 5.5089C6.83709 5.5204 6.70837 5.50408 6.58754 5.46106L4.88879 4.85606C4.80636 4.82653 4.71704 4.82206 4.63208 4.84319C4.54711 4.86432 4.47029 4.91011 4.41129 4.97481C3.69932 5.7585 3.16166 6.68429 2.83379 7.69106C2.80674 7.77431 2.80514 7.86374 2.82919 7.94791C2.85323 8.03208 2.90184 8.10716 2.96879 8.16356L4.34629 9.32731C4.44417 9.40991 4.52284 9.51289 4.5768 9.62904C4.63076 9.7452 4.65872 9.87173 4.65872 9.99981C4.65872 10.1279 4.63076 10.2544 4.5768 10.3706C4.52284 10.4867 4.44417 10.5897 4.34629 10.6723L2.96879 11.8361C2.90184 11.8925 2.85323 11.9675 2.82919 12.0517C2.80514 12.1359 2.80674 12.2253 2.83379 12.3086C3.16189 13.3155 3.7 14.2413 4.41254 15.0248C4.47154 15.0895 4.54836 15.1353 4.63333 15.1564C4.71829 15.1776 4.80761 15.1731 4.89004 15.1436L6.59004 14.5386C6.71086 14.4951 6.83968 14.4784 6.96758 14.4897C7.09547 14.501 7.21938 14.54 7.33069 14.604C7.44201 14.668 7.53807 14.7554 7.61221 14.8603C7.68635 14.9651 7.7368 15.0848 7.76004 15.2111L8.08254 16.9811C8.11504 17.1561 8.25129 17.2961 8.42629 17.3323C9.46475 17.5525 10.5378 17.5525 11.5763 17.3323C11.6617 17.3142 11.7399 17.2712 11.8009 17.2087C11.8618 17.1461 11.9029 17.0669 11.9188 16.9811L12.2438 15.2111C12.2674 15.085 12.3181 14.9655 12.3924 14.861C12.4666 14.7564 12.5626 14.6691 12.6738 14.6052C12.785 14.5413 12.9088 14.5022 13.0365 14.4907C13.1642 14.4792 13.293 14.4955 13.4138 14.5386L15.1125 15.1436C15.2813 15.2036 15.47 15.1561 15.59 15.0248C16.302 14.2411 16.8397 13.3153 17.1675 12.3086C17.1946 12.2253 17.1962 12.1359 17.1722 12.0517C17.1481 11.9675 17.0995 11.8925 17.0325 11.8361L15.655 10.6723C15.557 10.5898 15.4781 10.4869 15.424 10.3707C15.37 10.2545 15.3419 10.128 15.3419 9.99981C15.3419 9.87166 15.37 9.74507 15.424 9.6289C15.4781 9.51273 15.557 9.40979 15.655 9.32731L17.0325 8.16356C17.0995 8.10716 17.1481 8.03208 17.1722 7.94791C17.1962 7.86374 17.1946 7.77431 17.1675 7.69106C16.8391 6.68399 16.3006 5.75816 15.5875 4.97481C15.5285 4.91011 15.4517 4.86432 15.3668 4.84319C15.2818 4.82206 15.1925 4.82653 15.11 4.85606L13.41 5.46106C13.3649 5.47729 13.3185 5.48983 13.2713 5.49856M4.99629 6.22356L6.16754 6.63981C6.45898 6.74356 6.76946 6.78282 7.07755 6.75487C7.38564 6.72692 7.68399 6.63243 7.952 6.47792C8.22 6.32342 8.45128 6.11258 8.62985 5.85997C8.80843 5.60736 8.93004 5.319 8.98629 5.01481L9.20754 3.80231C9.73259 3.73675 10.2637 3.73675 10.7888 3.80231L11.0113 5.01481C11.0672 5.31921 11.1885 5.60783 11.367 5.86067C11.5455 6.11351 11.7768 6.32453 12.0449 6.4791C12.313 6.63367 12.6116 6.7281 12.9198 6.75585C13.228 6.7836 13.5386 6.744 13.83 6.63981L15 6.22106C15.3188 6.63856 15.5838 7.09356 15.7875 7.57606L14.845 8.37231C14.6082 8.57225 14.4179 8.82147 14.2873 9.10257C14.1568 9.38367 14.0891 9.68987 14.0891 9.99981C14.0891 10.3097 14.1568 10.6159 14.2873 10.897C14.4179 11.1781 14.6082 11.4274 14.845 11.6273L15.7888 12.4236C15.5843 12.9065 15.3197 13.3618 15.0013 13.7786L13.83 13.3611C13.5386 13.2573 13.2281 13.218 12.92 13.246C12.6119 13.2739 12.3136 13.3684 12.0456 13.5229C11.7776 13.6774 11.5463 13.8883 11.3677 14.1409C11.1892 14.3935 11.0675 14.6819 11.0113 14.9861L10.7888 16.1986C10.2638 16.2642 9.73258 16.2642 9.20754 16.1986L8.98629 14.9861C8.93043 14.6817 8.80906 14.393 8.63058 14.1402C8.45211 13.8874 8.2208 13.6763 7.95267 13.5218C7.68455 13.3672 7.38603 13.2728 7.07779 13.245C6.76955 13.2173 6.45896 13.2569 6.16754 13.3611L5.00004 13.7786C4.68159 13.3618 4.417 12.9066 4.21254 12.4236L5.15504 11.6261C5.39165 11.4261 5.58179 11.177 5.71221 10.896C5.84264 10.615 5.91021 10.309 5.91021 9.99918C5.91021 9.68941 5.84264 9.38336 5.71221 9.10238C5.58179 8.8214 5.39165 8.57225 5.15504 8.37231L4.21129 7.57606C4.4166 7.09349 4.68113 6.63833 4.99879 6.22106" fill="black"/>
</svg>
