<svg width="20" height="20" viewBox="0 0 20 20" fill="none" xmlns="http://www.w3.org/2000/svg">
<path d="M5.75 3H14.25C14.9793 3 15.6788 3.28973 16.1945 3.80546C16.7103 4.32118 17 5.02065 17 5.75V9.401C16.6909 9.22205 16.3522 9.10011 16 9.041V5.75C16 5.28587 15.8156 4.84075 15.4874 4.51256C15.1592 4.18437 14.7141 4 14.25 4H5.75C5.28587 4 4.84075 4.18437 4.51256 4.51256C4.18437 4.84075 4 5.28587 4 5.75V14.25C4 15.216 4.784 16 5.75 16H11.05C11.017 16.162 11 16.329 11 16.5C11 16.667 11.013 16.834 11.038 17H5.75C5.02065 17 4.32118 16.7103 3.80546 16.1945C3.28973 15.6788 3 14.9793 3 14.25V5.75C3 5.02065 3.28973 4.32118 3.80546 3.80546C4.32118 3.28973 5.02065 3 5.75 3ZM9.5 10H13.264C13.003 10.2914 12.8015 10.6312 12.671 11H9.5C9.36739 11 9.24021 10.9473 9.14645 10.8536C9.05268 10.7598 9 10.6326 9 10.5C9 10.3674 9.05268 10.2402 9.14645 10.1464C9.24021 10.0527 9.36739 10 9.5 10ZM9.5 13H12.67C12.802 13.373 13.006 13.711 13.264 14H9.5C9.36739 14 9.24021 13.9473 9.14645 13.8536C9.05268 13.7598 9 13.6326 9 13.5C9 13.3674 9.05268 13.2402 9.14645 13.1464C9.24021 13.0527 9.36739 13 9.5 13ZM7.5 7.25C7.5 7.44891 7.42098 7.63968 7.28033 7.78033C7.13968 7.92098 6.94891 8 6.75 8C6.55109 8 6.36032 7.92098 6.21967 7.78033C6.07902 7.63968 6 7.44891 6 7.25C6 7.05109 6.07902 6.86032 6.21967 6.71967C6.36032 6.57902 6.55109 6.5 6.75 6.5C6.94891 6.5 7.13968 6.57902 7.28033 6.71967C7.42098 6.86032 7.5 7.05109 7.5 7.25ZM6.75 11C6.94891 11 7.13968 10.921 7.28033 10.7803C7.42098 10.6397 7.5 10.4489 7.5 10.25C7.5 10.0511 7.42098 9.86032 7.28033 9.71967C7.13968 9.57902 6.94891 9.5 6.75 9.5C6.55109 9.5 6.36032 9.57902 6.21967 9.71967C6.07902 9.86032 6 10.0511 6 10.25C6 10.4489 6.07902 10.6397 6.21967 10.7803C6.36032 10.921 6.55109 11 6.75 11ZM6.75 14C6.94891 14 7.13968 13.921 7.28033 13.7803C7.42098 13.6397 7.5 13.4489 7.5 13.25C7.5 13.0511 7.42098 12.8603 7.28033 12.7197C7.13968 12.579 6.94891 12.5 6.75 12.5C6.55109 12.5 6.36032 12.579 6.21967 12.7197C6.07902 12.8603 6 13.0511 6 13.25C6 13.4489 6.07902 13.6397 6.21967 13.7803C6.36032 13.921 6.55109 14 6.75 14ZM9.5 7C9.36739 7 9.24021 7.05268 9.14645 7.14645C9.05268 7.24021 9 7.36739 9 7.5C9 7.63261 9.05268 7.75979 9.14645 7.85355C9.24021 7.94732 9.36739 8 9.5 8H13.5C13.6326 8 13.7598 7.94732 13.8536 7.85355C13.9473 7.75979 14 7.63261 14 7.5C14 7.36739 13.9473 7.24021 13.8536 7.14645C13.7598 7.05268 13.6326 7 13.5 7H9.5ZM17.5 12C17.5 12.5304 17.2893 13.0391 16.9142 13.4142C16.5391 13.7893 16.0304 14 15.5 14C14.9696 14 14.4609 13.7893 14.0858 13.4142C13.7107 13.0391 13.5 12.5304 13.5 12C13.5 11.4696 13.7107 10.9609 14.0858 10.5858C14.4609 10.2107 14.9696 10 15.5 10C16.0304 10 16.5391 10.2107 16.9142 10.5858C17.2893 10.9609 17.5 11.4696 17.5 12ZM19 16.5C19 17.745 18 19 15.5 19C13 19 12 17.75 12 16.5C12 16.1022 12.158 15.7206 12.4393 15.4393C12.7206 15.158 13.1022 15 13.5 15H17.5C17.8978 15 18.2794 15.158 18.5607 15.4393C18.842 15.7206 19 16.1022 19 16.5Z" fill="#111111"/>
</svg>
