<svg width="21" height="21" viewBox="0 0 21 21" fill="none" xmlns="http://www.w3.org/2000/svg">
<path d="M16.3854 19.674H1.31084V3.28858H10.5195L11.8447 2.01183L11.8106 1.97774H1.31084C0.586927 1.97774 0 2.56467 0 3.28858V19.674C0 20.3979 0.586927 20.9849 1.31084 20.9849H16.3854C17.1094 20.9849 17.6963 20.3979 17.6963 19.674V10.0751L16.3854 11.3263V19.674ZM19.9673 0.854358C19.3758 0.287421 18.723 0 18.0266 0C16.9367 0 16.1417 0.703919 15.9254 0.919572C15.6186 1.22237 6.93041 9.89783 6.93041 9.89783C6.86225 9.96729 6.81243 10.0522 6.78687 10.1465C6.55158 11.016 5.37215 14.8777 5.36036 14.916C5.2994 15.114 5.3538 15.3296 5.49963 15.4735C5.55042 15.5245 5.61079 15.5649 5.67728 15.5925C5.74376 15.62 5.81504 15.6342 5.887 15.6341C5.94337 15.6341 6.00006 15.6259 6.05575 15.6085C6.09574 15.5951 10.0803 14.3065 10.7361 14.1109C10.8226 14.0853 10.9009 14.0384 10.9658 13.9752C11.3797 13.5669 19.3657 5.7048 20.0119 5.03725C20.6801 4.34776 21.0124 3.63104 20.9996 2.90516C20.9875 2.18813 20.6388 1.49798 19.9673 0.854358ZM19.0704 4.12487C18.7056 4.50108 15.8496 7.32331 10.5817 12.5129L10.1786 12.9104C9.57467 13.0972 8.12847 13.5619 7.03524 13.9145C7.38719 12.7521 7.80961 11.3479 7.99804 10.6837C9.12375 9.55962 16.5673 2.12751 16.8501 1.8483C16.9052 1.79322 17.4076 1.31051 18.0266 1.31051C18.3779 1.31051 18.7164 1.47076 19.0602 1.80043C19.4712 2.19467 19.6828 2.5735 19.6888 2.92742C19.6953 3.29184 19.4872 3.69459 19.0704 4.12487Z" fill="black"/>
</svg>
