<svg width="16" height="16" viewBox="0 0 16 16" fill="none" xmlns="http://www.w3.org/2000/svg">
<path d="M8.00008 1.33301C7.29284 1.33301 6.61456 1.61396 6.11446 2.11406C5.61437 2.61415 5.33341 3.29243 5.33341 3.99967C5.33341 4.70692 5.61437 5.3852 6.11446 5.88529C6.61456 6.38539 7.29284 6.66634 8.00008 6.66634C8.70733 6.66634 9.3856 6.38539 9.8857 5.88529C10.3858 5.3852 10.6667 4.70692 10.6667 3.99967C10.6667 3.29243 10.3858 2.61415 9.8857 2.11406C9.3856 1.61396 8.70733 1.33301 8.00008 1.33301ZM6.66675 3.99967C6.66675 3.64605 6.80722 3.30691 7.05727 3.05687C7.30732 2.80682 7.64646 2.66634 8.00008 2.66634C8.3537 2.66634 8.69284 2.80682 8.94289 3.05687C9.19294 3.30691 9.33342 3.64605 9.33342 3.99967C9.33342 4.3533 9.19294 4.69243 8.94289 4.94248C8.69284 5.19253 8.3537 5.33301 8.00008 5.33301C7.64646 5.33301 7.30732 5.19253 7.05727 4.94248C6.80722 4.69243 6.66675 4.3533 6.66675 3.99967ZM11.3334 7.99967H4.66675C4.13632 7.99967 3.62761 8.21039 3.25253 8.58546C2.87746 8.96053 2.66675 9.46924 2.66675 9.99967C2.66675 11.4877 3.27875 12.6797 4.28275 13.4863C5.27075 14.2797 6.59608 14.6663 8.00008 14.6663C9.40408 14.6663 10.7294 14.2797 11.7174 13.4863C12.7201 12.6797 13.3334 11.4877 13.3334 9.99967C13.3334 9.46924 13.1227 8.96053 12.7476 8.58546C12.3726 8.21039 11.8638 7.99967 11.3334 7.99967ZM4.66675 9.33301H11.3334C11.5102 9.33301 11.6798 9.40324 11.8048 9.52827C11.9298 9.65329 12.0001 9.82286 12.0001 9.99967C12.0001 11.089 11.5667 11.897 10.8827 12.4463C10.1814 13.009 9.17341 13.333 8.00008 13.333C6.82675 13.333 5.81875 13.009 5.11741 12.4463C4.43341 11.897 4.00008 11.089 4.00008 9.99967C4.00008 9.82286 4.07032 9.65329 4.19534 9.52827C4.32037 9.40324 4.48994 9.33301 4.66675 9.33301Z" fill="black"/>
</svg>
