<svg width="86" height="86" viewBox="0 0 86 86" fill="none" xmlns="http://www.w3.org/2000/svg">
<g clip-path="url(#clip0_590_16790)">
<mask id="mask0_590_16790" style="mask-type:luminance" maskUnits="userSpaceOnUse" x="7" y="14" width="79" height="58">
<path d="M43 57.333C54.8741 57.333 64.5 47.7071 64.5 35.833C64.5 23.9589 54.8741 14.333 43 14.333C31.1259 14.333 21.5 23.9589 21.5 35.833C21.5 47.7071 31.1259 57.333 43 57.333Z" fill="white"/>
<path d="M60.9167 46.583H28.6667V71.6663H60.9167V46.583Z" fill="white"/>
<path d="M39.4167 28.666H28.6667C16.7925 28.666 7.16666 38.2919 7.16666 50.166C7.16666 62.0401 16.7925 71.666 28.6667 71.666H39.4167C51.2908 71.666 60.9167 62.0401 60.9167 50.166C60.9167 38.2919 51.2908 28.666 39.4167 28.666Z" fill="white"/>
<path d="M68.0833 35.833H57.3333C47.4382 35.833 39.4167 43.8546 39.4167 53.7497C39.4167 63.6448 47.4382 71.6663 57.3333 71.6663H68.0833C77.9784 71.6663 86 63.6448 86 53.7497C86 43.8546 77.9784 35.833 68.0833 35.833Z" fill="white"/>
<path d="M50.1667 43H35.8333V60.9167H50.1667V43Z" fill="black"/>
<path d="M43 28.666L60.9167 46.5827H25.0833L43 28.666Z" fill="black"/>
</mask>
<g mask="url(#mask0_590_16790)">
<path d="M86 0H0V86H86V0Z" fill="#AEAEB2"/>
</g>
</g>
<defs>
<clipPath id="clip0_590_16790">
<rect width="86" height="86" fill="white"/>
</clipPath>
</defs>
</svg>
