<svg width="16" height="16" viewBox="0 0 16 16" fill="none" xmlns="http://www.w3.org/2000/svg">
<path d="M6.002 3.99995C6.002 3.47005 6.2125 2.96185 6.5872 2.58715C6.9619 2.21246 7.4701 2.00195 8 2.00195C8.5299 2.00195 9.0381 2.21246 9.4128 2.58715C9.7875 2.96185 9.998 3.47005 9.998 3.99995C9.998 4.52986 9.7875 5.03805 9.4128 5.41275C9.0381 5.78745 8.5299 5.99795 8 5.99795C7.4701 5.99795 6.9619 5.78745 6.5872 5.41275C6.2125 5.03805 6.002 4.52986 6.002 3.99995ZM8 3.00195C7.86894 3.00195 7.73916 3.02777 7.61808 3.07792C7.497 3.12808 7.38698 3.20159 7.29431 3.29426C7.20163 3.38693 7.12812 3.49695 7.07797 3.61804C7.02781 3.73912 7.002 3.86889 7.002 3.99995C7.002 4.13101 7.02781 4.26079 7.07797 4.38187C7.12812 4.50295 7.20163 4.61297 7.29431 4.70565C7.38698 4.79832 7.497 4.87183 7.61808 4.92198C7.73916 4.97214 7.86894 4.99795 8 4.99795C8.26469 4.99795 8.51853 4.89281 8.70569 4.70565C8.89285 4.51848 8.998 4.26464 8.998 3.99995C8.998 3.73527 8.89285 3.48142 8.70569 3.29426C8.51853 3.1071 8.26469 3.00195 8 3.00195ZM11 4.49995C11 4.30297 11.0388 4.10792 11.1142 3.92593C11.1896 3.74394 11.3001 3.57858 11.4393 3.43929C11.5786 3.3 11.744 3.18952 11.926 3.11413C12.108 3.03875 12.303 2.99995 12.5 2.99995C12.697 2.99995 12.892 3.03875 13.074 3.11413C13.256 3.18952 13.4214 3.3 13.5607 3.43929C13.6999 3.57858 13.8104 3.74394 13.8858 3.92593C13.9612 4.10792 14 4.30297 14 4.49995C14 4.89778 13.842 5.27931 13.5607 5.56061C13.2794 5.84192 12.8978 5.99995 12.5 5.99995C12.1022 5.99995 11.7206 5.84192 11.4393 5.56061C11.158 5.27931 11 4.89778 11 4.49995ZM12.5 3.99995C12.3674 3.99995 12.2402 4.05263 12.1464 4.1464C12.0527 4.24017 12 4.36734 12 4.49995C12 4.63256 12.0527 4.75974 12.1464 4.85351C12.2402 4.94727 12.3674 4.99995 12.5 4.99995C12.6326 4.99995 12.7598 4.94727 12.8536 4.85351C12.9473 4.75974 13 4.63256 13 4.49995C13 4.36734 12.9473 4.24017 12.8536 4.1464C12.7598 4.05263 12.6326 3.99995 12.5 3.99995ZM3.5 2.99995C3.10218 2.99995 2.72064 3.15799 2.43934 3.43929C2.15804 3.7206 2 4.10213 2 4.49995C2 4.89778 2.15804 5.27931 2.43934 5.56061C2.72064 5.84192 3.10218 5.99995 3.5 5.99995C3.89783 5.99995 4.27936 5.84192 4.56066 5.56061C4.84197 5.27931 5 4.89778 5 4.49995C5 4.10213 4.84197 3.7206 4.56066 3.43929C4.27936 3.15799 3.89783 2.99995 3.5 2.99995ZM3 4.49995C3 4.36734 3.05268 4.24017 3.14645 4.1464C3.24022 4.05263 3.36739 3.99995 3.5 3.99995C3.63261 3.99995 3.75979 4.05263 3.85355 4.1464C3.94732 4.24017 4 4.36734 4 4.49995C4 4.63256 3.94732 4.75974 3.85355 4.85351C3.75979 4.94727 3.63261 4.99995 3.5 4.99995C3.36739 4.99995 3.24022 4.94727 3.14645 4.85351C3.05268 4.75974 3 4.63256 3 4.49995ZM4.268 6.99995C4.09201 7.3038 3.99954 7.64881 4 7.99995H2V10.5C1.99992 10.7487 2.0617 10.9935 2.17977 11.2125C2.29784 11.4314 2.4685 11.6175 2.67639 11.7541C2.88428 11.8907 3.12286 11.9734 3.37068 11.9949C3.61849 12.0163 3.86774 11.9758 4.096 11.877C4.17 12.208 4.286 12.524 4.436 12.819C4.05646 12.9722 3.64511 13.0299 3.23806 12.987C2.831 12.9441 2.44071 12.802 2.10144 12.573C1.76218 12.344 1.48432 12.0352 1.29227 11.6738C1.10023 11.3123 0.999864 10.9093 1 10.5V7.99995C1 7.73474 1.10536 7.48038 1.29289 7.29285C1.48043 7.10531 1.73478 6.99995 2 6.99995H4.268ZM11.564 12.819C11.9435 12.9722 12.3549 13.0299 12.7619 12.987C13.169 12.9441 13.5593 12.802 13.8986 12.573C14.2378 12.344 14.5157 12.0352 14.7077 11.6738C14.8998 11.3123 15.0001 10.9093 15 10.5V7.99995C15 7.73474 14.8946 7.48038 14.7071 7.29285C14.5196 7.10531 14.2652 6.99995 14 6.99995H11.732C11.902 7.29395 12 7.63495 12 7.99995H14V10.5C14.0001 10.7487 13.9383 10.9935 13.8202 11.2125C13.7022 11.4314 13.5315 11.6175 13.3236 11.7541C13.1157 11.8907 12.8771 11.9734 12.6293 11.9949C12.3815 12.0163 12.1323 11.9758 11.904 11.877C11.829 12.208 11.714 12.524 11.564 12.819ZM6 6.99895C5.73478 6.99895 5.48043 7.10431 5.29289 7.29185C5.10536 7.47938 5 7.73374 5 7.99895V11C5 11.7956 5.31607 12.5587 5.87868 13.1213C6.44129 13.6839 7.20435 14 8 14C8.79565 14 9.55871 13.6839 10.1213 13.1213C10.6839 12.5587 11 11.7956 11 11V7.99995C11 7.73474 10.8946 7.48038 10.7071 7.29285C10.5196 7.10531 10.2652 6.99995 10 6.99995L6 6.99895ZM6 7.99895H10V11C10 11.5304 9.78929 12.0391 9.41421 12.4142C9.03914 12.7892 8.53043 13 8 13C7.46957 13 6.96086 12.7892 6.58579 12.4142C6.21071 12.0391 6 11.5304 6 11V7.99895Z" fill="black"/>
</svg>
