<svg width="16" height="16" viewBox="0 0 16 16" fill="none" xmlns="http://www.w3.org/2000/svg">
<path d="M1.93844 7.72727C1.93858 6.68165 2.27592 5.66502 2.89861 4.83361C3.5213 4.0022 4.39488 3.40203 5.38509 3.12534C6.3753 2.84864 7.42734 2.91074 8.37952 3.30208C9.33171 3.69343 10.1313 4.39236 10.6555 5.29146C11.1797 6.19057 11.3994 7.24008 11.2809 8.27871C11.1624 9.31734 10.7123 10.2876 9.99962 11.0404C9.28697 11.7932 8.35128 12.2868 7.33635 12.4454C6.32142 12.604 5.28342 12.4189 4.38188 11.9184C4.2759 11.8594 4.15166 11.8443 4.03505 11.8764L2.00406 12.43L2.54899 10.3605C2.58011 10.2422 2.56534 10.1162 2.50775 10.0086C2.13299 9.30888 1.93721 8.52432 1.93844 7.72727ZM6.62535 2C5.66614 1.99982 4.72283 2.24945 3.88507 2.72517C3.04732 3.20089 2.34296 3.88688 1.83896 4.71795C1.33496 5.54902 1.04806 6.49753 1.00553 7.47334C0.963004 8.44915 1.16626 9.41982 1.59599 10.2931L1.02856 12.4497C0.993244 12.5845 0.993354 12.7264 1.02888 12.8611C1.0644 12.9958 1.13409 13.1186 1.23095 13.2173C1.32781 13.3159 1.44844 13.3869 1.58073 13.423C1.71303 13.4592 1.85234 13.4593 1.98469 13.4234L4.10129 12.8468C4.85988 13.2342 5.69472 13.4418 6.54326 13.454C7.39181 13.4662 8.23207 13.2827 9.00108 12.9172C9.77009 12.5517 10.4479 12.0138 10.9838 11.3437C11.5197 10.6736 11.8997 9.88873 12.0953 9.04784C12.291 8.20695 12.2973 7.33188 12.1137 6.48817C11.9301 5.64447 11.5614 4.85401 11.0352 4.17602C10.509 3.49803 9.8389 2.95009 9.07521 2.57324C8.31152 2.1964 7.47398 2.00042 6.62535 2ZM10.3749 16C9.57968 16.0009 8.79337 15.8298 8.06808 15.4978C7.34279 15.1658 6.69508 14.6806 6.16791 14.0744C6.6075 14.1069 7.04924 14.0924 7.48586 14.0311C8.30978 14.6898 9.32737 15.0471 10.3749 15.0454C11.1588 15.0467 11.9304 14.8466 12.6183 14.4638C12.7243 14.4048 12.8486 14.3898 12.9652 14.4218L14.9962 14.9754L14.4512 12.906C14.4201 12.7877 14.4349 12.6617 14.4925 12.5541C14.8671 11.8543 15.0629 11.0698 15.0618 10.2727C15.0621 9.42537 14.8409 8.5932 14.4208 7.86176C14.0007 7.13032 13.3969 6.526 12.6715 6.11091C12.5595 5.6764 12.4024 5.25529 12.2028 4.85473C12.9612 5.12028 13.6551 5.54787 14.238 6.10883C14.8209 6.66979 15.2793 7.35117 15.5825 8.10728C15.8857 8.86338 16.0266 9.67675 15.9959 10.4929C15.9651 11.309 15.7634 12.1089 15.4042 12.8392L15.9717 14.9952C16.007 15.13 16.0069 15.272 15.9714 15.4067C15.9358 15.5415 15.8661 15.6644 15.7691 15.7631C15.6722 15.8617 15.5515 15.9327 15.4191 15.9688C15.2867 16.0049 15.1473 16.0049 15.0149 15.9688L12.8989 15.3923C12.1158 15.7931 11.2513 16.0013 10.3749 16ZM7.25027 10.5909C7.25027 10.7597 7.18443 10.9215 7.06723 11.0409C6.95004 11.1602 6.79109 11.2273 6.62535 11.2273C6.45961 11.2273 6.30066 11.1602 6.18346 11.0409C6.06627 10.9215 6.00043 10.7597 6.00043 10.5909C6.00043 10.4221 6.06627 10.2603 6.18346 10.1409C6.30066 10.0216 6.45961 9.95454 6.62535 9.95454C6.79109 9.95454 6.95004 10.0216 7.06723 10.1409C7.18443 10.2603 7.25027 10.4221 7.25027 10.5909ZM5.68797 5.98173L5.68922 5.96136C5.70026 5.82605 5.73923 5.69464 5.80358 5.57573C5.89857 5.40327 6.09604 5.18182 6.62535 5.18182C7.15466 5.18182 7.35213 5.40327 7.44712 5.57509C7.51437 5.69949 7.55385 5.83746 7.56273 5.97918V5.98109C7.56148 6.31327 7.37213 6.52709 6.99155 6.95727L6.9803 6.97063C6.61785 7.37982 6.15666 7.93409 6.15666 8.84091C6.15666 8.96749 6.20604 9.08888 6.29393 9.17839C6.38183 9.26789 6.50104 9.31818 6.62535 9.31818C6.74965 9.31818 6.86887 9.26789 6.95676 9.17839C7.04466 9.08888 7.09404 8.96749 7.09404 8.84091C7.09404 8.31591 7.33526 7.99518 7.67646 7.60954L7.75458 7.52236C8.06766 7.17363 8.50011 6.69254 8.50011 5.97727V5.976L8.49948 5.94482C8.49542 5.85938 8.48561 5.77434 8.47011 5.69027C8.4329 5.48565 8.36325 5.28857 8.26389 5.10673C8.00767 4.64218 7.50149 4.22727 6.62535 4.22727C5.74858 4.22727 5.24302 4.64218 4.98681 5.10673C4.84297 5.37002 4.76204 5.66411 4.75059 5.96518V5.97727C4.75001 6.10385 4.79883 6.22548 4.88632 6.31541C4.9738 6.40533 5.09278 6.45618 5.21709 6.45677C5.34139 6.45736 5.46084 6.40764 5.54914 6.31856C5.63745 6.22947 5.68739 6.10831 5.68797 5.98173Z" fill="black"/>
</svg>
