<svg width="16" height="16" viewBox="0 0 16 16" fill="none" xmlns="http://www.w3.org/2000/svg">
<path d="M7.49757 1.62039C8.78969 1.51852 10.0823 1.81137 11.2043 2.46019C12.3264 3.10901 13.225 4.08322 13.7812 5.25391C14.3375 6.4246 14.5252 7.7366 14.3195 9.0163C14.1138 10.296 13.5244 11.4831 12.6293 12.4205C11.7341 13.3579 10.5755 14.0014 9.30666 14.2659C8.03781 14.5304 6.71855 14.4034 5.52345 13.9018C4.32835 13.4001 3.31373 12.5474 2.61385 11.4565C1.91397 10.3655 1.56181 9.08783 1.60397 7.79239C1.60875 7.63326 1.67654 7.48254 1.79244 7.3734C1.90834 7.26425 2.06284 7.20561 2.22197 7.21039C2.3811 7.21516 2.53182 7.28295 2.64097 7.39885C2.75011 7.51475 2.80875 7.66926 2.80397 7.82839C2.76343 9.05467 3.15782 10.2558 3.91739 11.2194C4.67696 12.1829 5.75278 12.8469 6.95463 13.0938C8.15648 13.3407 9.40694 13.1547 10.4849 12.5687C11.5628 11.9826 12.3988 11.0343 12.8451 9.89137C13.2913 8.74843 13.319 7.48452 12.9233 6.32313C12.5276 5.16174 11.7339 4.17768 10.6827 3.54496C9.63146 2.91224 8.39036 2.67161 7.17884 2.86564C5.96733 3.05966 4.86344 3.67583 4.06237 4.60519L3.89917 4.80359H5.40077L5.48237 4.80999C5.62598 4.82975 5.75758 4.90083 5.85285 5.0101C5.94811 5.11936 6.00059 5.25943 6.00059 5.40439C6.00059 5.54935 5.94811 5.68941 5.85285 5.79868C5.75758 5.90795 5.62598 5.97903 5.48237 5.99879L5.40077 6.00439H2.60237L2.52077 5.99879C2.39105 5.98098 2.27072 5.92122 2.17813 5.82863C2.08555 5.73604 2.02579 5.61571 2.00797 5.48599L2.00237 5.40439V2.20439L2.00797 2.12279C2.02579 1.99307 2.08555 1.87273 2.17813 1.78015C2.27072 1.68756 2.39105 1.6278 2.52077 1.60999L2.60237 1.60439L2.68397 1.60999C2.8137 1.6278 2.93403 1.68756 3.02662 1.78015C3.1192 1.87273 3.17896 1.99307 3.19677 2.12279L3.20237 2.20439L3.20157 3.76679C4.29961 2.51954 5.84084 1.74899 7.49757 1.62039ZM7.79997 4.80439L7.88157 4.80999C8.0113 4.8278 8.13163 4.88756 8.22422 4.98015C8.3168 5.07273 8.37656 5.19307 8.39437 5.32279L8.39997 5.40439V8.00039L9.79998 8.00119L9.88158 8.00679C10.0258 8.0259 10.1582 8.09676 10.254 8.20617C10.3499 8.31559 10.4028 8.45611 10.4028 8.60159C10.4028 8.74707 10.3499 8.88759 10.254 8.997C10.1582 9.10642 10.0258 9.17728 9.88158 9.19639L9.79998 9.20119H7.79997L7.71837 9.19639C7.58854 9.17853 7.46811 9.11866 7.37551 9.02591C7.28291 8.93317 7.22323 8.81265 7.20557 8.68279L7.19997 8.60039V5.40359L7.20557 5.32199C7.22339 5.19227 7.28315 5.07193 7.37573 4.97935C7.46832 4.88676 7.58865 4.827 7.71837 4.80919L7.79997 4.80439Z" fill="black"/>
</svg>
