<svg width="16" height="16" viewBox="0 0 16 16" fill="none" xmlns="http://www.w3.org/2000/svg">
<g clip-path="url(#clip0_0_64)">
<path d="M10.5269 11.3514C9.47855 12.1889 8.14935 12.5932 6.81225 12.4813C5.47515 12.3695 4.23164 11.7498 3.33711 10.7497C2.44258 9.74964 1.96494 8.44499 2.00228 7.10373C2.03962 5.76247 2.5891 4.48642 3.53788 3.53764C4.48666 2.58886 5.76272 2.03937 7.10397 2.00204C8.44523 1.9647 9.74988 2.44234 10.75 3.33687C11.7501 4.23139 12.3697 5.4749 12.4816 6.81201C12.5935 8.14911 12.1892 9.47831 11.3517 10.5266L15.8292 15.003C15.9387 15.1125 16.0002 15.2611 16.0002 15.4159C16.0002 15.5708 15.9387 15.7194 15.8292 15.8289C15.7196 15.9385 15.5711 16 15.4162 16C15.2613 16 15.1127 15.9385 15.0032 15.8289L10.5269 11.3514ZM11.333 7.24957C11.333 6.71335 11.2274 6.18239 11.0222 5.687C10.817 5.1916 10.5162 4.74147 10.1371 4.36231C9.7579 3.98316 9.30778 3.68239 8.81238 3.47719C8.31699 3.27199 7.78602 3.16638 7.24981 3.16638C6.7136 3.16638 6.18264 3.27199 5.68724 3.47719C5.19185 3.68239 4.74172 3.98316 4.36256 4.36231C3.9834 4.74147 3.68263 5.1916 3.47743 5.687C3.27223 6.18239 3.16662 6.71335 3.16662 7.24957C3.16662 8.3325 3.59681 9.37107 4.36256 10.1368C5.12831 10.9026 6.16688 11.3328 7.24981 11.3328C8.33274 11.3328 9.37132 10.9026 10.1371 10.1368C10.9028 9.37107 11.333 8.3325 11.333 7.24957Z" fill="#AEAEB2"/>
</g>
<defs>
<clipPath id="clip0_0_64">
<rect width="16" height="16" fill="white"/>
</clipPath>
</defs>
</svg>
